<svg xmlns="http://www.w3.org/2000/svg" viewBox="967 105 73.062 81.19">
  <defs>
    <style>
      .cls-1 {
        fill: #ff8300;
      }
    </style>
  </defs>
  <path id="Path_84" data-name="Path 84" class="cls-1" d="M72.231,25.742l-1.052-4.309a8.031,8.031,0,0,0,1.787-5.077,9.42,9.42,0,0,0-.451-3.173c.785-3.106.551-10.973.518-11.908a1.361,1.361,0,0,0-.4-.885,1.177,1.177,0,0,0-.919-.317A4.386,4.386,0,0,0,68.49,1.759L65.634,5.383a51.1,51.1,0,0,0-7.833,0L54.946,1.759A4.474,4.474,0,0,0,51.722.072,1.315,1.315,0,0,0,50.8.389a1.218,1.218,0,0,0-.4.885c-.033.935-.267,8.8.518,11.908a9.019,9.019,0,0,0-.451,3.173,8.1,8.1,0,0,0,1.637,4.893L45.342,30.9l-1.937.618A65.865,65.865,0,0,0,8.115,58.726c.3-6.5,1.754-18.856,8.15-29.928,2.789-4.827,3.541-9.219,2.221-13.044-1.787-5.177-6.948-7.9-9.854-9.069a3.4,3.4,0,0,0-2.622,6.28c1.7.735,4.71,2.4,5.712,5.311.718,2.1.317,4.593-1.2,7.4C2,41.324-1.337,55.036.55,66.476c.818,4.994,3.791,7.666,8.417,7.666.3,0,.6-.017.919-.033a7.348,7.348,0,0,0,2.1,1.72,14.493,14.493,0,0,0,.017,3.992,1.227,1.227,0,0,0,.969,1.019,55.16,55.16,0,0,0,8.618.418c4.743,0,10.321-.167,14.263-.317a2.914,2.914,0,0,0,2.3-1.269,2.876,2.876,0,0,0,.334-2.622,4.864,4.864,0,0,0-4.225-3.207l-4.91-.351a19.7,19.7,0,0,0,3.39-2.772l16.584-6.647,1.486,3.04-.735,6.814A3.785,3.785,0,0,0,53.459,78.1l2.889.284.167.351a3.821,3.821,0,0,0,3.39,2.121h6.012a2.469,2.469,0,0,0,2.138-1.236,2.427,2.427,0,0,0-.017-2.472,4.823,4.823,0,0,0-3.307-2.3l-.7-.117L61.092,62.267,69.309,47.42A29.705,29.705,0,0,0,72.231,25.742Zm-19.39-22.6c.05.05.084.1.134.15l3.273,4.159a1.236,1.236,0,0,0,1.1.468,47.5,47.5,0,0,1,8.718,0,1.278,1.278,0,0,0,1.1-.468L70.444,3.3a1.081,1.081,0,0,1,.134-.15c.05,3.541-.05,8.217-.551,9.653a1.2,1.2,0,0,0,.017.868,6.711,6.711,0,0,1,.434,2.622c-.033,1.57-.484,3.591-2.455,4.342a5.9,5.9,0,0,0-2.038,1.3L64.7,23.17a11.279,11.279,0,0,1-2.99,1.553,11.176,11.176,0,0,1-2.973-1.553l-1.286-1.253a5.9,5.9,0,0,0-2.038-1.3c-1.971-.752-2.422-2.772-2.455-4.342a6.66,6.66,0,0,1,.434-2.622,1.2,1.2,0,0,0,.017-.868C52.891,11.362,52.774,6.686,52.841,3.145ZM3.022,66.058c-1.8-10.872,1.453-24.05,9.67-39.164,1.871-3.457,2.321-6.63,1.369-9.419-.685-1.987-2.472-4.793-7.065-6.781a.939.939,0,0,1-.518-1.152.917.917,0,0,1,.551-.534.967.967,0,0,1,.651.033c2.522,1,6.931,3.324,8.4,7.549,1.069,3.106.4,6.8-2.021,10.973A66.884,66.884,0,0,0,6.178,51.745a72.919,72.919,0,0,0-.651,7.95A24.643,24.643,0,0,0,6.9,68.563c.017.033.017.05.033.084A25.167,25.167,0,0,0,8.216,71.62C5.26,71.369,3.589,69.566,3.022,66.058Zm50.688,9.57a1.288,1.288,0,0,1-1.152-1.4l.317-2.873,2.171,4.426Zm6.547-16.952-.935-4.008a4.457,4.457,0,0,1,.518-3.324l5.812-9.586a1.252,1.252,0,1,0-2.138-1.3L57.7,50.042a6.906,6.906,0,0,0-.818,5.194L61.81,76.129a1.274,1.274,0,0,0,1,.952l1.5.267a2.3,2.3,0,0,1,1.537,1.035H59.922a1.3,1.3,0,0,1-1.152-.718L47.463,54.651a4.429,4.429,0,0,1-.451-1.971v-9.8a1.253,1.253,0,1,0-2.505,0v9.8a7.032,7.032,0,0,0,.718,3.073l2.99,6.1-12.86,5.144a11.814,11.814,0,0,0,.785-2.355,10.507,10.507,0,0,0-.484-6.146,1.256,1.256,0,0,0-2.288,1.035c.15.334,3.39,8-8.568,13.645l-3.674-.267a1.248,1.248,0,1,0-.184,2.488l13.127.952A2.374,2.374,0,0,1,36.123,77.9a.37.37,0,0,1-.05.367.449.449,0,0,1-.317.184c-10.538.384-18.321.4-21.377.067-.3-5.111,3.056-12.309,3.106-12.392a1.255,1.255,0,1,0-2.271-1.069,42.938,42.938,0,0,0-2.772,8.083c-2.422-2-3.875-7.148-4.359-9.553A63.411,63.411,0,0,1,44.123,33.925l2.338-.752a1.2,1.2,0,0,0,.635-.468l6.931-9.9c.15.067.284.134.451.2a3.371,3.371,0,0,1,1.186.768l1.286,1.253c.551.534,3.357,2.255,4.726,2.255s4.175-1.72,4.726-2.255l1.286-1.253A3.62,3.62,0,0,1,68.874,23c.017-.017.05-.017.067-.033l.835,3.39a27.465,27.465,0,0,1-2.655,19.908Z" transform="translate(966.961 104.934)"/>
</svg>
