<svg xmlns="http://www.w3.org/2000/svg" viewBox="1847.844 258.409 255.559 228.688">
  <defs>
    <style>
      .cls-1 {
        stroke: #f9f9f9;
        stroke-width: 2px;
      }

      .cls-2 {
        fill: none;
        stroke: #ff8300;
        stroke-linecap: round;
        stroke-linejoin: round;
        stroke-miterlimit: 10;
        stroke-width: 5px;
      }
    </style>
  </defs>
  <g id="Group_186" data-name="Group 186" transform="translate(1795)">
    <path id="Path_184" data-name="Path 184" class="cls-1" d="M246.9,26.981a45.55,45.55,0,0,0-17.24,10.836l-.711.711-.93-.274a28.163,28.163,0,0,0-16.473,0l-.93.274-.711-.711a45.746,45.746,0,0,0-17.568-10.946,4.976,4.976,0,0,0-6.184,6.458c2.08,6.4,5.473,16.528,6.841,20.578l.164.493-.164.493a24.02,24.02,0,0,0-.93,5.254,40.235,40.235,0,0,0,.055,5.145l.055.438L189.6,71.257a12.5,12.5,0,0,1-9.632,7.115c-13.3,1.861-39.241,5.528-63.212,9.742-24.738,4.324-40.992,8.1-48.271,11.11l-1.259.547-.766-1.149A42.949,42.949,0,0,0,48.73,83.3c-11.712-5.473-31.25-17.4-30.922-36.012.328-16.528,6.622-26.325,11.822-31.633a9.177,9.177,0,0,0-.821-13.628A8.6,8.6,0,0,0,23.171,0a9,9,0,0,0-7.005,3.284C3.742,18.006.787,38.42.13,49.311A43.043,43.043,0,0,0,9.544,78.974,69.085,69.085,0,0,0,29.9,96.05a38.393,38.393,0,0,1,17.9,22.822,10.959,10.959,0,0,1,.383,2.955l-.109,4.269a61.838,61.838,0,0,1-.493,6.4l-2.9,20.633A26.677,26.677,0,0,1,30.231,173a11.85,11.85,0,0,0-6.294,12.1l5.254,39.35a2.481,2.481,0,0,0,2.463,2.134H53.382a2.8,2.8,0,0,0,1.532-.438,2.474,2.474,0,0,0,.985-2.682l-.219-.821a16.576,16.576,0,0,0-11.219-11.493l-1.04-.328-1.149-9.468a6.847,6.847,0,0,1,4.269-7.224l23.041-9.14-.055,2.463a3.613,3.613,0,0,1-.055.766v.055c-.219,3.831-.328,7.334-.438,10.4a13.661,13.661,0,0,0,3.886,9.906l17.4,17.4a2.4,2.4,0,0,0,1.751.712h25.175a2.515,2.515,0,0,0,2.463-2.408,12.811,12.811,0,0,0-10.946-13.463l-7.936-1.2L97.439,204.3A8.453,8.453,0,0,1,97.6,195l19.976-29.225.547-.164c7.17-2.244,31.8-9.195,46.739-5.692l1.149.274.109,1.149a15.394,15.394,0,0,0,1.423,5.09l28.623,58.834a2.437,2.437,0,0,0,2.189,1.368h19.484a2.463,2.463,0,0,0,2.463-3.065l-1.313-5.309a13.009,13.009,0,0,0-8.811-9.359l-1.314-.383,4.926-42.853a16.612,16.612,0,0,1,1.7-5.528c2.955-5.692,8.811-16.638,14.5-25.832a56.955,56.955,0,0,0,8.045-23.369c1.478-12.807,4.269-28.9,5.09-33.549l.055-.383.219-.274c2.955-4.214,4.324-9.906,3.941-16.528a23.453,23.453,0,0,0-.93-5.254l-.164-.493.164-.493c.766-2.244,4.6-13.682,6.9-20.742a4.98,4.98,0,0,0-1.478-5.309A4.764,4.764,0,0,0,246.9,26.981ZM44.734,189.527A11.749,11.749,0,0,0,37.4,201.9l1.368,11.329a2.441,2.441,0,0,0,2.134,2.134,12.225,12.225,0,0,1,7.115,3.5l2.682,2.791H33.843l-4.98-37.216a6.961,6.961,0,0,1,3.667-7.06,32.042,32.042,0,0,0,16.8-22.111l.711-3.284,2.189,2.572c7.443,8.811,12.807,17.13,15.488,24.081l.6,1.532ZM236.943,85.268c-1.149,6.786-2.682,16.692-3.612,25.066A52.5,52.5,0,0,1,226,131.678c-5.747,9.359-11.657,20.414-14.667,26.161a21.252,21.252,0,0,0-2.244,7.279L205.638,195l-7.005-34.7a10.14,10.14,0,0,1,1.751-7.99l11.329-15.379a40.566,40.566,0,0,0,7.717-28.295,2.446,2.446,0,0,0-2.682-2.189,2.337,2.337,0,0,0-1.642.876,2.385,2.385,0,0,0-.547,1.806,35.555,35.555,0,0,1-6.786,24.9l-11.329,15.379a15.04,15.04,0,0,0-2.627,11.876l10.07,49.968a2.46,2.46,0,0,0,2.408,1.97,8.256,8.256,0,0,1,8.045,6.294l.547,2.244H200L172.035,164.3a10.063,10.063,0,0,1-.93-5.528l4.05-36.121a2.385,2.385,0,0,0-.547-1.806,2.773,2.773,0,0,0-1.642-.93,2.466,2.466,0,0,0-2.736,2.189l-3.722,33.166-1.751-.328c-13.244-2.518-31.688,1.532-41.539,4.159l-2.408.657.383-2.463a19.167,19.167,0,0,0-3.776-14.613l-6.02-7.772a2.45,2.45,0,0,0-3.448-.438,2.213,2.213,0,0,0-.93,1.642,2.6,2.6,0,0,0,.493,1.806l6.02,7.772a14.212,14.212,0,0,1,.493,16.747L93.608,192.154a13.332,13.332,0,0,0-.219,14.722l4,6.239a2.407,2.407,0,0,0,1.7,1.095l9.03,1.368a7.949,7.949,0,0,1,5.473,3.5l1.7,2.518H93.17L76.477,204.906a8.585,8.585,0,0,1-2.463-6.239c.109-2.955.274-6.4.438-10.234.383-5.418-1.642-17.513-19.265-37.982a10.086,10.086,0,0,1-2.463-6.786l.438-23.534c-.055-.383-.328-1.642-.6-2.627a43.355,43.355,0,0,0-20.2-25.668C8.449,78.044,4.29,61.3,5,49.639,6.479,25.668,14.962,12.314,19.887,6.458a4.268,4.268,0,0,1,7.5,2.518,4.121,4.121,0,0,1-1.2,3.229c-5.8,5.965-12.861,16.857-13.19,34.972-.438,21.344,20.961,34.589,33.768,40.554a38.339,38.339,0,0,1,17.349,16.364s.164.274.219.383a2.55,2.55,0,0,0,1.642,1.149,2.516,2.516,0,0,0,1.97-.493C73.85,100.373,117.086,92,180.682,83.243a17.3,17.3,0,0,0,12.04-7.5l1.423-2.08,1.314,2.134a19.671,19.671,0,0,0,2.408,3.12c3.831,3.941,9.413,6.075,16.09,6.075h10.891a25.709,25.709,0,0,0,9.851-1.532l2.682-.985Zm10.836-50.46-6.239,18.717v.055a2.274,2.274,0,0,0,0,1.7,15.977,15.977,0,0,1,1.04,5.2c.383,6.513-1.149,11.712-4.378,15.051-2.9,3.01-7.224,4.543-12.588,4.543H214.5c-5.582.109-10.125-1.478-13.08-4.543-3.229-3.338-4.761-8.538-4.378-15.051a18.285,18.285,0,0,1,1.04-5.2,2.274,2.274,0,0,0,0-1.7l-.055-.109c-.876-2.627-3.941-11.767-6.239-18.717l-1.149-3.5,3.393,1.478a42.949,42.949,0,0,1,13.956,10.234,2.469,2.469,0,0,0,2.846.711,23.041,23.041,0,0,1,17.787,0,2.469,2.469,0,0,0,2.846-.711,42.187,42.187,0,0,1,14.011-10.234l3.393-1.478Z" transform="translate(53.8 259.409)"/>
    <g id="Group_148" data-name="Group 148" transform="translate(131.974 409.845)">
      <path id="Path_186" data-name="Path 186" class="cls-2" d="M36.187,4,4,51.724" transform="translate(-4 -4)"/>
    </g>
  </g>
</svg>
