<svg xmlns="http://www.w3.org/2000/svg" viewBox="669 97 114.889 96.127">
  <defs>
    <style>
      .cls-1 {
        fill: #ff8300;
      }
    </style>
  </defs>
  <path id="Path_72" data-name="Path 72" class="cls-1" d="M.76,10.42a3.663,3.663,0,0,0-.617,2.935l.74,3.379a10.419,10.419,0,0,0,8.535,8.042c4.07.641,7.474,1.283,9.892,1.875l.222.049,5.822,26.937a23.755,23.755,0,0,0,6.068,11.4l.074.074,6.068,21.387.074.3-.271.123a8.688,8.688,0,0,0-4.514,5.3,3.075,3.075,0,0,0,.469,2.689,3.026,3.026,0,0,0,2.442,1.233h4.268a1.665,1.665,0,0,0,.345-.049,8.648,8.648,0,0,0,5.057-3.552,6.911,6.911,0,0,0,.666-5.476c-.765-3.108-.37-13.469.1-21.634l.025-.345h.345c3.355-.1,7.894-1.628,13.148-3.379,2.886-.962,5.871-1.973,9.028-2.886A25.266,25.266,0,0,1,75.8,57.782a19.032,19.032,0,0,1,7.894,1.554l.123.049,4.958,10.41a17.929,17.929,0,0,0,9.546,8.954,12.875,12.875,0,0,1,6.463,5.624l.2.37-.37.173a6.735,6.735,0,0,0-4.045,5.427,3.1,3.1,0,0,0,3.083,3.453h5.674a5.554,5.554,0,0,0,4.292-2,5.687,5.687,0,0,0,1.258-4.564l-1.6-9.62a6.841,6.841,0,0,0-3.971-5.156,3.932,3.932,0,0,1-2.319-3.5c-.173-6.956-.617-19.611-1.677-26.246a12.519,12.519,0,0,0-4.662-7.746l-.247-.222.173-.271a19.926,19.926,0,0,0,1.455-19.29l-.493-1.061a4.2,4.2,0,0,0-7.746,3.231l.814,2.2a7.282,7.282,0,0,1-2.1,8.066L89.49,30.179,59.74,29.241a21.26,21.26,0,0,1-18.9-13.074l-2.491-6.019,2.911-2.442a1.478,1.478,0,0,0,.518-1.357,1.41,1.41,0,0,0-.888-1.135L29.375.281c-.025,0-.049-.025-.074-.025A3.221,3.221,0,0,0,27.2.133L15.733,3.192A3.277,3.277,0,0,0,13.489,5.24L12.4,8.1,3.375,8.94A3.492,3.492,0,0,0,.76,10.42ZM37.515,6.991l-5.328,4.465a.848.848,0,0,1-.518.2.871.871,0,0,1-.345-.074.813.813,0,0,1-.493-.715l-.444-6.932ZM98.1,32.843l-.2.3-.3-.173a27,27,0,0,0-3.922-1.751l-.617-.222,1.307-1.11a10.285,10.285,0,0,0,2.935-11.347l-.814-2.2a1.236,1.236,0,0,1,.567-1.529,1.272,1.272,0,0,1,1.011-.1,1.215,1.215,0,0,1,.74.666l.493,1.061h0A16.983,16.983,0,0,1,98.1,32.843Zm-94.97-20.7a.6.6,0,0,1,.493-.271l5.649-.518a50.421,50.421,0,0,1,8.412-.1A1.487,1.487,0,0,0,19.261,9.8a1.57,1.57,0,0,0-1.455-1.5L15.536,8.15,16.3,6.1,27.352,3.168l.493,7.943a3.8,3.8,0,0,0,6.216,2.664l1.9-1.579,2.146,5.18a24.235,24.235,0,0,0,21.535,14.9l30.119.962h.074c1.159.247,11.347,2.639,12.531,10.015,1.085,6.71,1.5,20.3,1.653,25.852a6.928,6.928,0,0,0,4.07,6.118,3.949,3.949,0,0,1,2.269,2.96l1.6,9.62a2.646,2.646,0,0,1-.987,2.541,2.72,2.72,0,0,1-1.7.567h-5.822l.074-.444a3.735,3.735,0,0,1,2.565-2.886l1.357-.419a1.485,1.485,0,0,0,1.036-1.283,1.716,1.716,0,0,0-.123-.765l-.222-.518a15.883,15.883,0,0,0-8.732-8.51,14.818,14.818,0,0,1-7.968-7.5L82.928,50.7a1.4,1.4,0,0,0-.863-.765,1.578,1.578,0,0,0-1.159.074,1.508,1.508,0,0,0-.617,2.023l1.7,3.577-.74-.173a26.647,26.647,0,0,0-13.345.518c-3.231.913-6.389,1.973-9.176,2.911C54.092,60.421,49.7,61.9,46.79,62.1l-.419.025L46.4,61.7c.247-3.626.444-6.315.567-7.6a1.54,1.54,0,0,0-1.307-1.677,1.517,1.517,0,0,0-1.11.321A1.479,1.479,0,0,0,44,53.761c-.247,2.861-2.294,28.121-.839,33.967a3.821,3.821,0,0,1-1.184,4.194,6.658,6.658,0,0,1-2.146,1.159l-.049.025H35.591l.2-.493a5.623,5.623,0,0,1,3.774-3.453l.247-.074A1.469,1.469,0,0,0,40.82,87.26L34.185,63.875a1.515,1.515,0,0,0-.37-.641,20.648,20.648,0,0,1-5.6-10.262l-5.526-25.7h.444a9.617,9.617,0,0,0,4.342-1.184c2.541-1.406,4.07-2.319,4.095-2.343a1.486,1.486,0,0,0,.518-2.023,1.407,1.407,0,0,0-.913-.666,1.441,1.441,0,0,0-1.11.173s-1.529.913-4,2.294a6.509,6.509,0,0,1-4.835.592,107.131,107.131,0,0,0-11.3-2.22,7.508,7.508,0,0,1-6.118-5.748l-.74-3.379h0A.665.665,0,0,1,3.128,12.147Z" transform="translate(668.941 96.987)"/>
</svg>
