<svg xmlns="http://www.w3.org/2000/svg" viewBox="2282.472 274.487 285.028 217.243">
  <defs>
    <style>
      .cls-1 {
        fill: #484848;
        stroke: #fff;
        stroke-width: 3px;
      }

      .cls-2, .cls-3 {
        fill: none;
      }

      .cls-2 {
        stroke: #95989a;
      }

      .cls-3 {
        stroke: #ff8300;
        stroke-width: 5px;
      }
    </style>
  </defs>
  <g id="Group_187" data-name="Group 187" transform="translate(2233)">
    <path id="Path_198" data-name="Path 198" class="cls-1" d="M1.621,23.205A8.163,8.163,0,0,0,.247,29.747L1.9,37.279A23.219,23.219,0,0,0,20.917,55.2c9.071,1.429,16.657,2.859,22.045,4.178l.495.11,12.974,60.033a52.941,52.941,0,0,0,13.524,25.4l.165.165,13.524,47.663.165.66-.6.275a19.362,19.362,0,0,0-10.06,11.82,6.854,6.854,0,0,0,1.045,5.992,6.743,6.743,0,0,0,5.443,2.749h9.511a3.711,3.711,0,0,0,.77-.11c.77-.165,7.642-1.979,11.27-7.916q3.216-5.278,1.484-12.2c-1.7-6.927-.825-30.016.22-48.213l.055-.77h.77c7.477-.22,17.592-3.628,29.3-7.532,6.432-2.144,13.084-4.4,20.121-6.432a56.309,56.309,0,0,1,15.723-2.309,42.414,42.414,0,0,1,17.592,3.463l.275.11,11.05,23.2a39.956,39.956,0,0,0,21.275,19.956,28.693,28.693,0,0,1,14.4,12.534l.44.825-.825.385a15.01,15.01,0,0,0-9.016,12.094,6.9,6.9,0,0,0,6.872,7.7h12.644a12.377,12.377,0,0,0,9.566-4.453,12.673,12.673,0,0,0,2.8-10.17l-3.573-21.44a15.246,15.246,0,0,0-8.851-11.49,8.762,8.762,0,0,1-5.168-7.806c-.385-15.5-1.374-43.705-3.738-58.493-1.1-6.652-4.563-12.479-10.39-17.262l-.55-.495.385-.6a44.406,44.406,0,0,0,3.243-42.99l-1.1-2.364a9.359,9.359,0,0,0-17.262,7.2l1.814,4.893a16.228,16.228,0,0,1-4.673,17.977l-6.707,5.717-66.3-2.089A47.38,47.38,0,0,1,90.955,36.015L85.4,22.6l6.487-5.443a3.3,3.3,0,0,0,1.154-3.024,3.142,3.142,0,0,0-1.979-2.529L65.392.611c-.055,0-.11-.055-.165-.055A7.179,7.179,0,0,0,60.554.281L34.991,7.1a7.3,7.3,0,0,0-5,4.563l-2.419,6.377L7.448,19.907A7.783,7.783,0,0,0,1.621,23.205Zm81.913-7.642-11.875,9.95a1.891,1.891,0,0,1-1.154.44,1.94,1.94,0,0,1-.77-.165,1.813,1.813,0,0,1-1.1-1.594l-.99-15.448ZM218.552,73.178l-.44.66-.66-.385a60.176,60.176,0,0,0-8.741-3.9l-1.374-.495,2.914-2.474a22.921,22.921,0,0,0,6.542-25.288L214.978,36.4a2.754,2.754,0,0,1,1.264-3.408,2.836,2.836,0,0,1,2.254-.22,2.707,2.707,0,0,1,1.649,1.484l1.1,2.364h0A37.849,37.849,0,0,1,218.552,73.178ZM6.9,27.054a1.337,1.337,0,0,1,1.1-.6l12.589-1.154a112.369,112.369,0,0,1,18.746-.22,3.315,3.315,0,0,0,3.518-3.244,3.5,3.5,0,0,0-3.244-3.353l-5.058-.33,1.7-4.563L60.884,7.043l1.1,17.7a8.469,8.469,0,0,0,13.854,5.937l4.233-3.518,4.783,11.545a54.01,54.01,0,0,0,47.993,33.2l67.124,2.144h.165c2.584.55,25.288,5.882,27.927,22.32,2.419,14.953,3.353,45.244,3.683,57.614a15.439,15.439,0,0,0,9.071,13.634,8.8,8.8,0,0,1,5.058,6.6l3.573,21.44a5.9,5.9,0,0,1-2.2,5.662,6.063,6.063,0,0,1-3.793,1.264H230.481l.165-.99a8.324,8.324,0,0,1,5.717-6.432l3.024-.935a3.309,3.309,0,0,0,2.309-2.859,3.825,3.825,0,0,0-.275-1.7l-.495-1.154a35.4,35.4,0,0,0-19.461-18.966,33.024,33.024,0,0,1-17.757-16.712l-18.966-39.857a3.116,3.116,0,0,0-1.924-1.7,3.517,3.517,0,0,0-2.584.165,3.361,3.361,0,0,0-1.374,4.508l3.793,7.971L181,123.535a59.387,59.387,0,0,0-29.741,1.154c-7.2,2.034-14.238,4.4-20.451,6.487-10.335,3.463-20.121,6.762-26.608,7.2l-.935.055.055-.935c.55-8.081.99-14.074,1.264-16.932a3.432,3.432,0,0,0-2.914-3.738,3.38,3.38,0,0,0-2.474.715,3.3,3.3,0,0,0-1.209,2.254c-.55,6.377-5.113,62.671-1.869,75.7.99,3.958.11,7.037-2.639,9.346a14.839,14.839,0,0,1-4.783,2.584l-.11.055H79.245l.44-1.1a12.532,12.532,0,0,1,8.411-7.7l.55-.165a3.274,3.274,0,0,0,2.254-4.068L76.112,142.336a3.377,3.377,0,0,0-.825-1.429,46.017,46.017,0,0,1-12.479-22.87L50.494,60.753h.99a21.432,21.432,0,0,0,9.676-2.639c5.662-3.134,9.071-5.168,9.126-5.223a3.312,3.312,0,0,0,1.154-4.508A3.137,3.137,0,0,0,69.4,46.9a3.211,3.211,0,0,0-2.474.385s-3.408,2.034-8.906,5.113A14.507,14.507,0,0,1,47.25,53.716a238.756,238.756,0,0,0-25.178-4.948A16.732,16.732,0,0,1,8.438,35.96L6.789,28.428h0A1.482,1.482,0,0,1,6.9,27.054Z" transform="translate(50.941 275.987)"/>
    <line id="Line_47" data-name="Line 47" class="cls-2" x2="270" transform="translate(64.5 345.5)"/>
    <line id="Line_48" data-name="Line 48" class="cls-2" x2="270" transform="translate(64.5 488.5)"/>
    <line id="Line_49" data-name="Line 49" class="cls-3" y2="145" transform="translate(172.5 344.5)"/>
  </g>
</svg>
